<svg width="800" height="200" viewBox="0 0 800 200" fill="none" xmlns="http://www.w3.org/2000/svg">
  <path d="M0 100 H800" stroke="#E5E5E5" stroke-width="1" />
  <path d="M10 100 V80 V120" stroke="#111111" stroke-width="1.5" />
  <path d="M30 100 V60 V140" stroke="#111111" stroke-width="1.5" />
  <path d="M50 100 V40 V160" stroke="#111111" stroke-width="1.5" />
  <path d="M70 100 V30 V170" stroke="#111111" stroke-width="1.5" />
  <path d="M90 100 V50 V150" stroke="#111111" stroke-width="1.5" />
  <path d="M110 100 V70 V130" stroke="#111111" stroke-width="1.5" />
  <path d="M130 100 V90 V110" stroke="#111111" stroke-width="1.5" />
  <path d="M150 100 V80 V120" stroke="#111111" stroke-width="1.5" />
  <path d="M170 100 V60 V140" stroke="#111111" stroke-width="1.5" />
  <path d="M190 100 V75 V125" stroke="#111111" stroke-width="1.5" />
  <path d="M210 100 V85 V115" stroke="#111111" stroke-width="1.5" />
  <path d="M230 100 V95 V105" stroke="#111111" stroke-width="1.5" />
  <path d="M250 100 V99 V101" stroke="#111111" stroke-width="1.5" />
  <path d="M270 100 V90 V110" stroke="#111111" stroke-width="1.5" />
  <path d="M290 100 V70 V130" stroke="#111111" stroke-width="1.5" />
  <path d="M310 100 V40 V160" stroke="#111111" stroke-width="1.5" />
  <path d="M330 100 V20 V180" stroke="#111111" stroke-width="1.5" />
  <path d="M350 100 V30 V170" stroke="#111111" stroke-width="1.5" />
  <path d="M370 100 V50 V150" stroke="#111111" stroke-width="1.5" />
  <path d="M390 100 V80 V120" stroke="#111111" stroke-width="1.5" />
  <path d="M410 100 V90 V110" stroke="#111111" stroke-width="1.5" />
  <path d="M430 100 V95 V105" stroke="#111111" stroke-width="1.5" />
  <path d="M450 100 V85 V115" stroke="#111111" stroke-width="1.5" />
  <path d="M470 100 V70 V130" stroke="#111111" stroke-width="1.5" />
  <path d="M490 100 V50 V150" stroke="#111111" stroke-width="1.5" />
  <path d="M510 100 V40 V160" stroke="#111111" stroke-width="1.5" />
  <path d="M530 100 V45 V155" stroke="#111111" stroke-width="1.5" />
  <path d="M550 100 V60 V140" stroke="#111111" stroke-width="1.5" />
  <path d="M570 100 V80 V120" stroke="#111111" stroke-width="1.5" />
  <path d="M590 100 V95 V105" stroke="#111111" stroke-width="1.5" />
  <path d="M610 100 V90 V110" stroke="#111111" stroke-width="1.5" />
  <path d="M630 100 V75 V125" stroke="#111111" stroke-width="1.5" />
  <path d="M650 100 V60 V140" stroke="#111111" stroke-width="1.5" />
  <path d="M670 100 V50 V150" stroke="#111111" stroke-width="1.5" />
  <path d="M690 100 V65 V135" stroke="#111111" stroke-width="1.5" />
  <path d="M710 100 V80 V120" stroke="#111111" stroke-width="1.5" />
  <path d="M730 100 V90 V110" stroke="#111111" stroke-width="1.5" />
  <path d="M750 100 V98 V102" stroke="#111111" stroke-width="1.5" />
  <path d="M770 100 V95 V105" stroke="#111111" stroke-width="1.5" />
  <path d="M790 100 V90 V110" stroke="#111111" stroke-width="1.5" />
</svg> 